<?xml version="1.0" encoding="utf-8"?>
<!-- Generator: Adobe Illustrator 16.0.0, SVG Export Plug-In . SVG Version: 6.00 Build 0)  -->
<!DOCTYPE svg PUBLIC "-//W3C//DTD SVG 1.1//EN" "http://www.w3.org/Graphics/SVG/1.1/DTD/svg11.dtd">
<svg version="1.1" id="Layer_1" xmlns="http://www.w3.org/2000/svg" xmlns:xlink="http://www.w3.org/1999/xlink" x="0px" y="0px"
	 width="511.48px" height="167.312px" viewBox="0 0 511.48 167.312" enable-background="new 0 0 511.48 167.312"
	 xml:space="preserve">
<g>
	<path fill="#A7A9AC" d="M511.48,144.7c0,12.486-10.121,22.611-22.605,22.611H22.611C10.125,167.312,0,157.187,0,144.7V22.61
		C0,10.125,10.125,0,22.611,0h466.264c12.484,0,22.605,10.125,22.605,22.61V144.7z"/>
	<g id="PLAY">
		<defs>
			<path id="SVGID_1_" d="M110.845,73.207L87.781,59.892c0,0-42.016-24.261-44.485-25.686c-2.47-1.426-4.931-0.562-4.931,2.417
				c0,4.965,0,51.8,0,51.8s0,50.615,0,52.85s1.76,3.199,3.904,1.959c2.146-1.239,45.512-26.279,45.512-26.279l23.062-13.313
				c0,0,19.568-11.297,22.169-12.798c2.601-1.502,2.351-3.563,0.156-4.746C130.975,84.913,110.845,73.207,110.845,73.207z"/>
		</defs>
		<use xlink:href="#SVGID_1_"  overflow="visible" fill="#FFFFFF"/>
		<clipPath id="SVGID_2_">
			<use xlink:href="#SVGID_1_"  overflow="visible"/>
		</clipPath>
		<polygon clip-path="url(#SVGID_2_)" fill="#FFFFFF" points="38.365,31.771 38.365,88.423 38.365,145.075 95.499,88.424 		"/>
		<polygon clip-path="url(#SVGID_2_)" fill="#FFFFFF" points="110.845,73.207 87.781,59.892 38.365,31.359 38.365,31.771 
			95.499,88.424 		"/>
		<polygon clip-path="url(#SVGID_2_)" fill="#FFFFFF" points="38.365,145.075 38.365,145.485 87.781,116.952 110.844,103.639 
			95.499,88.424 		"/>
		<polygon clip-path="url(#SVGID_2_)" fill="#FFFFFF" points="110.845,73.207 95.499,88.424 110.844,103.639 137.201,88.423 		"/>
	</g>
	<g>
		<path fill="#F9F9F9" d="M398.059,110.571c-2.146,0-4.104-0.396-5.877-1.188c-1.773-0.791-3.263-2.01-4.466-3.652h-0.36
			c0.24,1.924,0.36,3.75,0.36,5.473v13.559h-4.988V77.02h4.058l0.69,4.51h0.24c1.284-1.804,2.778-3.106,4.481-3.909
			c1.703-0.801,3.658-1.203,5.861-1.203c4.37,0,7.743,1.494,10.117,4.48c2.375,2.987,3.563,7.175,3.563,12.567
			c0,5.412-1.208,9.615-3.621,12.614C405.701,109.073,402.35,110.571,398.059,110.571z M397.337,80.657
			c-3.367,0-5.802,0.932-7.305,2.796c-1.503,1.864-2.275,4.831-2.316,8.9v1.111c0,4.63,0.772,7.943,2.316,9.938
			c1.544,1.993,4.02,2.991,7.425,2.991c2.848,0,5.078-1.152,6.692-3.457c1.612-2.305,2.419-5.481,2.419-9.531
			c0-4.108-0.807-7.262-2.419-9.456C402.535,81.754,400.264,80.657,397.337,80.657z"/>
		<path fill="#F9F9F9" d="M423.294,109.97h-4.99v-46.78h4.99V109.97z"/>
		<path fill="#F9F9F9" d="M451.986,109.97l-0.993-4.689h-0.24c-1.644,2.065-3.282,3.464-4.916,4.193
			c-1.633,0.732-3.673,1.098-6.117,1.098c-3.267,0-5.827-0.842-7.682-2.525s-2.781-4.077-2.781-7.185
			c0-6.653,5.322-10.142,15.964-10.463l5.594-0.181v-2.044c0-2.586-0.557-4.496-1.67-5.727c-1.111-1.234-2.893-1.85-5.336-1.85
			c-2.747,0-5.854,0.842-9.32,2.525l-1.534-3.818c1.625-0.881,3.402-1.573,5.338-2.074c1.934-0.5,3.872-0.752,5.817-0.752
			c3.928,0,6.839,0.872,8.734,2.616c1.893,1.744,2.84,4.54,2.84,8.388v22.488H451.986z M440.713,106.453
			c3.105,0,5.545-0.852,7.32-2.554c1.772-1.703,2.661-4.09,2.661-7.158v-2.976l-4.993,0.21c-3.968,0.141-6.827,0.756-8.583,1.85
			c-1.753,1.093-2.63,2.791-2.63,5.096c0,1.805,0.545,3.178,1.639,4.118C437.22,105.981,438.746,106.453,440.713,106.453z"/>
		<path fill="#F9F9F9" d="M458.581,77.02h5.35l7.216,18.79c1.583,4.291,2.566,7.387,2.948,9.292h0.24
			c0.261-1.024,0.808-2.772,1.638-5.249c0.832-2.475,3.554-10.086,8.162-22.833h5.354l-14.162,37.521
			c-1.402,3.709-3.041,6.339-4.917,7.895c-1.873,1.552-4.174,2.328-6.897,2.328c-1.524,0-3.027-0.172-4.512-0.511v-3.997
			c1.102,0.24,2.336,0.36,3.699,0.36c3.428,0,5.871-1.925,7.336-5.772l1.833-4.69L458.581,77.02z"/>
	</g>
	<g>
		<path fill="#F9F9F9" d="M305.609,80.081c1.584,1.311,4.892,4.066,4.892,9.306c0,5.097-2.895,7.514-5.79,9.785
			c-0.896,0.894-1.93,1.864-1.93,3.381c0,1.513,1.033,2.341,1.794,2.962l2.482,1.926c3.032,2.551,5.786,4.896,5.786,9.654
			c0,6.477-6.272,13.023-18.124,13.023c-9.995,0-14.817-4.755-14.817-9.857c0-2.481,1.235-5.994,5.307-8.409
			c4.27-2.618,10.063-2.96,13.163-3.171c-0.968-1.24-2.068-2.549-2.068-4.684c0-1.169,0.346-1.859,0.689-2.689
			c-0.761,0.069-1.518,0.137-2.208,0.137c-7.303,0-11.438-5.444-11.438-10.816c0-3.172,1.449-6.688,4.409-9.236
			c3.93-3.239,8.616-3.792,12.341-3.792h14.194l-4.411,2.481H305.609z M300.715,110.684c-0.551-0.071-0.897-0.071-1.583-0.071
			c-0.62,0-4.347,0.139-7.238,1.107c-1.516,0.547-5.928,2.201-5.928,7.098c0,4.89,4.758,8.41,12.133,8.41
			c6.612,0,10.131-3.178,10.131-7.447C308.229,116.261,305.954,114.406,300.715,110.684z M302.715,97.587
			c1.583-1.587,1.719-3.79,1.719-5.031c0-4.962-2.962-12.681-8.681-12.681c-1.794,0-3.722,0.895-4.825,2.275
			c-1.17,1.448-1.518,3.306-1.518,5.101c0,4.615,2.688,12.266,8.618,12.266C299.751,99.517,301.607,98.69,302.715,97.587z"/>
		<path fill="#F9F9F9" d="M262.221,109.58c-10.939,0-16.788-8.532-16.788-16.241c0-9.015,7.361-16.718,17.824-16.718
			c10.11,0,16.441,7.911,16.441,16.24C279.698,100.976,273.439,109.58,262.221,109.58z M270.82,104.007
			c1.654-2.203,2.067-4.953,2.067-7.641c0-6.055-2.89-17.614-11.423-17.614c-2.27,0-4.54,0.896-6.191,2.343
			c-2.684,2.405-3.168,5.435-3.168,8.396c0,6.808,3.372,18.021,11.7,18.021C266.488,107.513,269.241,106.207,270.82,104.007z"/>
		<path fill="#F9F9F9" d="M224.926,109.58c-10.941,0-16.791-8.532-16.791-16.241c0-9.015,7.365-16.718,17.824-16.718
			c10.113,0,16.443,7.911,16.443,16.24C242.402,100.976,236.143,109.58,224.926,109.58z M233.527,104.007
			c1.651-2.203,2.065-4.953,2.065-7.641c0-6.055-2.892-17.614-11.425-17.614c-2.269,0-4.541,0.896-6.191,2.343
			c-2.684,2.405-3.165,5.435-3.165,8.396c0,6.808,3.37,18.021,11.699,18.021C229.194,107.513,231.945,106.207,233.527,104.007z"/>
		<path fill="#F9F9F9" d="M202.879,108.501l-9.894,2.283c-4.015,0.625-7.61,1.174-11.413,1.174
			c-19.096,0-26.357-14.043-26.357-25.043c0-13.42,10.307-25.869,27.949-25.869c3.737,0,7.332,0.552,10.582,1.452
			c5.189,1.453,7.609,3.25,9.133,4.289l-5.744,5.466l-2.42,0.551l1.73-2.769c-2.352-2.281-6.645-6.499-14.805-6.499
			c-10.931,0-19.164,8.304-19.164,20.409c0,13.001,9.41,25.248,24.488,25.248c4.432,0,6.71-0.898,8.787-1.73V96.326l-10.445,0.553
			l5.532-2.978h14.667l-1.797,1.729c-0.488,0.417-0.555,0.557-0.693,1.105c-0.072,0.625-0.137,2.633-0.137,3.322V108.501z"/>
		<path fill="#F9F9F9" d="M327.475,106.51c-2.284-0.208-2.762-0.621-2.762-3.323v-0.76V64.033c0.014-0.149,0.023-0.302,0.037-0.446
			c0.279-2.42,0.97-2.835,3.117-4.082h-9.896l-5.19,2.491h5.289v0.032l-0.004-0.025v40.424v2.285c0,1.381-0.273,1.59-1.866,3.664
			h12.246l2.56-1.52C329.83,106.716,328.652,106.647,327.475,106.51z"/>
		<path fill="#F9F9F9" d="M355.624,107.146c-0.753,0.414-1.509,0.896-2.262,1.238c-2.271,1.029-4.606,1.305-6.671,1.305
			c-2.193,0-5.631-0.142-9.138-2.681c-4.874-3.437-7.004-9.345-7.004-14.497c0-10.647,8.656-15.868,15.732-15.868
			c2.474,0,5.019,0.617,7.08,1.924c3.432,2.263,4.325,5.217,4.803,6.797l-16.141,6.529l-5.291,0.414
			c1.715,8.725,7.623,13.805,14.152,13.805c3.503,0,6.046-1.236,8.381-2.402L355.624,107.146z M349.169,86.671
			c1.303-0.48,1.99-0.893,1.99-1.854c0-2.747-3.09-5.909-6.803-5.909c-2.751,0-7.9,2.131-7.9,9.55c0,1.168,0.138,2.404,0.209,3.644
			L349.169,86.671z"/>
		<g>
			<path fill="#F9F9F9" d="M362.256,77.112v4.533h-0.551v-4.533h-1.5v-0.469h3.55v0.469H362.256z"/>
			<path fill="#F9F9F9" d="M368.436,81.646V77.07h-0.025l-1.396,4.576h-0.431l-1.408-4.576h-0.018v4.576h-0.5v-5.002h0.857
				l1.274,4.043h0.018l1.255-4.043h0.869v5.002H368.436z"/>
		</g>
	</g>
	<g>
		<path fill="#F9F9FA" d="M168.955,47.575h-3.438c0-0.473-0.326-1.812-0.979-4.018h-4.963c-0.673,2.17-1.01,3.509-1.01,4.018h-3.232
			c0-0.279,0.836-2.571,2.508-6.875c1.672-4.304,2.508-6.674,2.508-7.111h4.061c0,0.408,0.758,2.745,2.272,7.009
			S168.955,47.188,168.955,47.575z M163.992,41.506c-1.225-3.695-1.838-5.693-1.838-5.994h-0.172c0,0.279-0.633,2.277-1.9,5.994
			H163.992z"/>
		<path fill="#F9F9FA" d="M182.807,47.575h-2.654c0-0.293-0.984-1.844-2.953-4.651c-2.062-2.958-3.238-4.98-3.523-6.069h-0.172
			c0.178,1.568,0.268,2.986,0.268,4.254c0,1.769,0.051,3.925,0.15,6.467h-2.643c0.107-2.22,0.162-4.658,0.162-7.315
			c0-2.614-0.055-4.837-0.162-6.671h3.191c0,0.38,0.884,1.895,2.652,4.544c1.884,2.814,2.965,4.723,3.244,5.726h0.162
			c-0.172-1.597-0.258-3.029-0.258-4.297c0-1.94-0.051-3.932-0.15-5.973h2.686c-0.102,1.776-0.15,4-0.15,6.671
			C182.656,42.953,182.705,45.391,182.807,47.575z"/>
		<path fill="#F9F9FA" d="M198.376,40.099c0,2.034-0.651,3.81-1.955,5.328c-1.304,1.519-3.13,2.277-5.479,2.277
			c-1.06,0-2.521-0.043-4.383-0.129c0.093-2.163,0.14-4.601,0.14-7.315c0-2.606-0.047-4.83-0.14-6.671h1.88
			c0.308,0,0.766-0.011,1.375-0.032c0.608-0.021,1.006-0.032,1.192-0.032c2.585,0,4.46,0.645,5.624,1.934
			C197.794,36.747,198.376,38.294,198.376,40.099z M195.443,40.561c0-1.375-0.401-2.533-1.203-3.475
			c-0.803-0.941-2.027-1.413-3.674-1.413c-0.309,0-0.73,0.032-1.268,0.097c0.071,1.433,0.107,2.929,0.107,4.49
			c0,1.712,0.035,3.409,0.107,5.092c0.465,0.093,0.931,0.14,1.396,0.14c1.539,0,2.68-0.478,3.422-1.434
			C195.072,43.101,195.443,41.936,195.443,40.561z"/>
		<path fill="#F9F9FA" d="M212.732,47.575h-3.18c-0.831-2.535-1.469-4.1-1.912-4.694c-0.444-0.594-1.16-0.892-2.148-0.892
			c-0.416,0-0.812,0.004-1.192,0.011c0,1.841,0.032,3.699,0.097,5.575h-2.986c0.093-2.163,0.14-4.601,0.14-7.315
			c0-2.606-0.047-4.83-0.14-6.671h1.858c0.215,0,0.664-0.011,1.349-0.032c0.684-0.021,1.315-0.032,1.896-0.032
			c3.287,0,4.931,1.125,4.931,3.373c0,1.783-0.938,3.026-2.814,3.728v0.161c0.723,0.201,1.357,0.765,1.901,1.692
			C211.074,43.406,211.809,45.104,212.732,47.575z M208.704,37.692c0-1.425-0.917-2.138-2.75-2.138c-0.673,0-1.268,0.05-1.783,0.15
			c0.079,1.11,0.118,2.557,0.118,4.34c0.394,0.015,0.727,0.021,0.999,0.021C207.565,40.066,208.704,39.275,208.704,37.692z"/>
		<path fill="#F9F9FA" d="M228.131,40.324c0,2.199-0.674,4.021-2.02,5.468c-1.347,1.447-3.012,2.17-4.995,2.17
			c-1.891,0-3.474-0.664-4.748-1.993c-1.274-1.328-1.912-3.017-1.912-5.065c0-2.198,0.673-4.021,2.02-5.468
			c1.347-1.446,3.011-2.17,4.995-2.17c1.891,0,3.473,0.663,4.748,1.987C227.493,36.579,228.131,38.269,228.131,40.324z
			 M225.166,40.636c0-1.497-0.383-2.71-1.149-3.642c-0.767-0.931-1.712-1.396-2.836-1.396c-1.046,0-1.934,0.469-2.664,1.407
			c-0.73,0.938-1.096,2.124-1.096,3.556c0,1.49,0.385,2.702,1.155,3.636c0.77,0.935,1.713,1.402,2.83,1.402
			c1.045,0,1.934-0.471,2.664-1.413C224.801,43.245,225.166,42.061,225.166,40.636z"/>
		<path fill="#F9F9FA" d="M234.205,47.575h-3.041c0.094-2.22,0.141-4.658,0.141-7.315c0-2.614-0.047-4.837-0.141-6.671h3.041
			c-0.094,1.805-0.141,4.028-0.141,6.671C234.064,42.96,234.111,45.398,234.205,47.575z"/>
		<path fill="#F9F9FA" d="M249.775,40.099c0,2.034-0.652,3.81-1.955,5.328c-1.305,1.519-3.131,2.277-5.479,2.277
			c-1.061,0-2.521-0.043-4.383-0.129c0.092-2.163,0.139-4.601,0.139-7.315c0-2.606-0.047-4.83-0.139-6.671h1.879
			c0.309,0,0.767-0.011,1.375-0.032c0.609-0.021,1.006-0.032,1.193-0.032c2.584,0,4.459,0.645,5.623,1.934
			S249.775,38.294,249.775,40.099z M246.842,40.561c0-1.375-0.4-2.533-1.203-3.475c-0.802-0.941-2.026-1.413-3.674-1.413
			c-0.308,0-0.73,0.032-1.268,0.097c0.072,1.433,0.107,2.929,0.107,4.49c0,1.712,0.036,3.409,0.107,5.092
			c0.466,0.093,0.932,0.14,1.396,0.14c1.54,0,2.681-0.478,3.422-1.434S246.842,41.936,246.842,40.561z"/>
		<path fill="#F9F9FA" d="M270.431,47.575h-3.438c0-0.473-0.326-1.812-0.979-4.018h-4.963c-0.673,2.17-1.01,3.509-1.01,4.018h-3.232
			c0-0.279,0.836-2.571,2.508-6.875c1.672-4.304,2.508-6.674,2.508-7.111h4.061c0,0.408,0.758,2.745,2.272,7.009
			S270.431,47.188,270.431,47.575z M265.468,41.506c-1.225-3.695-1.838-5.693-1.838-5.994h-0.172c0,0.279-0.633,2.277-1.9,5.994
			H265.468z"/>
		<path fill="#F9F9FA" d="M282.961,37.252c0,1.712-0.636,2.976-1.907,3.792c-1.271,0.816-2.83,1.225-4.678,1.225
			c-0.337,0-0.576-0.007-0.72-0.021c0,1.347,0.039,3.123,0.118,5.328h-3.019c0.093-2.069,0.14-4.508,0.14-7.315
			c0-2.578-0.047-4.802-0.14-6.671h1.869c0.265,0,0.773-0.011,1.525-0.032s1.403-0.032,1.955-0.032c1.36,0,2.51,0.308,3.448,0.924
			C282.492,35.064,282.961,35.999,282.961,37.252z M280.189,37.843c0-1.532-1.017-2.299-3.051-2.299
			c-0.509,0-1.046,0.054-1.611,0.161c0.079,1.354,0.118,2.886,0.118,4.598c0.179,0.015,0.387,0.021,0.623,0.021
			C278.883,40.324,280.189,39.497,280.189,37.843z"/>
		<path fill="#F9F9FA" d="M295.845,37.252c0,1.712-0.636,2.976-1.906,3.792c-1.271,0.816-2.831,1.225-4.679,1.225
			c-0.337,0-0.576-0.007-0.72-0.021c0,1.347,0.039,3.123,0.118,5.328h-3.019c0.093-2.069,0.14-4.508,0.14-7.315
			c0-2.578-0.047-4.802-0.14-6.671h1.869c0.265,0,0.773-0.011,1.525-0.032s1.403-0.032,1.955-0.032c1.36,0,2.51,0.308,3.448,0.924
			C295.376,35.064,295.845,35.999,295.845,37.252z M293.073,37.843c0-1.532-1.017-2.299-3.051-2.299
			c-0.509,0-1.046,0.054-1.611,0.161c0.079,1.354,0.118,2.886,0.118,4.598c0.179,0.015,0.387,0.021,0.623,0.021
			C291.767,40.324,293.073,39.497,293.073,37.843z"/>
		<path fill="#F9F9FA" d="M316.909,40.324c0,2.199-0.673,4.021-2.02,5.468c-1.347,1.447-3.012,2.17-4.995,2.17
			c-1.891,0-3.474-0.664-4.748-1.993c-1.274-1.328-1.912-3.017-1.912-5.065c0-2.198,0.673-4.021,2.02-5.468
			c1.347-1.446,3.012-2.17,4.995-2.17c1.891,0,3.474,0.663,4.748,1.987C316.271,36.579,316.909,38.269,316.909,40.324z
			 M313.944,40.636c0-1.497-0.383-2.71-1.149-3.642c-0.767-0.931-1.712-1.396-2.836-1.396c-1.046,0-1.934,0.469-2.664,1.407
			c-0.73,0.938-1.096,2.124-1.096,3.556c0,1.49,0.385,2.702,1.155,3.636c0.77,0.935,1.713,1.402,2.83,1.402
			c1.046,0,1.934-0.471,2.664-1.413C313.579,43.245,313.944,42.061,313.944,40.636z"/>
		<path fill="#F9F9FA" d="M331.47,47.575h-2.653c0-0.293-0.984-1.844-2.954-4.651c-2.062-2.958-3.237-4.98-3.523-6.069h-0.172
			c0.179,1.568,0.269,2.986,0.269,4.254c0,1.769,0.05,3.925,0.15,6.467h-2.643c0.107-2.22,0.161-4.658,0.161-7.315
			c0-2.614-0.054-4.837-0.161-6.671h3.19c0,0.38,0.885,1.895,2.653,4.544c1.884,2.814,2.965,4.723,3.244,5.726h0.161
			c-0.172-1.597-0.258-3.029-0.258-4.297c0-1.94-0.05-3.932-0.15-5.973h2.686c-0.101,1.776-0.15,4-0.15,6.671
			C331.319,42.953,331.369,45.391,331.47,47.575z"/>
	</g>
</g>
</svg>
