<?xml version="1.0" encoding="utf-8"?>
<!-- Generator: Adobe Illustrator 16.0.0, SVG Export Plug-In . SVG Version: 6.00 Build 0)  -->
<!DOCTYPE svg PUBLIC "-//W3C//DTD SVG 1.1//EN" "http://www.w3.org/Graphics/SVG/1.1/DTD/svg11.dtd">
<svg version="1.1" id="Layer_1" xmlns="http://www.w3.org/2000/svg" xmlns:xlink="http://www.w3.org/1999/xlink" x="0px" y="0px"
	 width="179.27px" height="50px" viewBox="160.683 70.396 179.27 50" enable-background="new 160.683 70.396 179.27 50"
	 xml:space="preserve">
<g>
	<path fill="#FFFFFF" d="M215.519,98.839c0.56,0,1.021-0.045,1.386-0.139s0.657-0.221,0.878-0.383
		c0.22-0.16,0.373-0.352,0.457-0.572c0.085-0.219,0.127-0.467,0.127-0.738c0-0.576-0.271-1.055-0.814-1.438
		c-0.543-0.381-1.475-0.792-2.798-1.233c-0.577-0.205-1.154-0.438-1.73-0.7c-0.576-0.264-1.094-0.593-1.551-0.991
		c-0.458-0.398-0.832-0.883-1.119-1.451c-0.289-0.569-0.433-1.261-0.433-2.072c0-0.815,0.153-1.549,0.458-2.201
		c0.305-0.653,0.737-1.208,1.297-1.667c0.559-0.458,1.238-0.81,2.035-1.056c0.797-0.246,1.695-0.369,2.696-0.369
		c1.187,0,2.213,0.127,3.078,0.382c0.865,0.254,1.577,0.534,2.137,0.839l-1.145,3.13c-0.492-0.255-1.039-0.48-1.641-0.675
		c-0.602-0.194-1.327-0.292-2.175-0.292c-0.95,0-1.633,0.131-2.048,0.394c-0.416,0.263-0.623,0.666-0.623,1.209
		c0,0.321,0.077,0.592,0.229,0.812c0.153,0.223,0.369,0.42,0.648,0.598c0.28,0.18,0.602,0.34,0.966,0.485s0.767,0.293,1.208,0.446
		c0.916,0.34,1.713,0.673,2.391,1.004c0.679,0.332,1.242,0.716,1.692,1.157c0.449,0.442,0.784,0.959,1.005,1.553
		c0.221,0.592,0.331,1.313,0.331,2.161c0,1.646-0.577,2.922-1.73,3.83c-1.153,0.908-2.892,1.359-5.214,1.359
		c-0.78,0-1.484-0.047-2.111-0.139c-0.628-0.094-1.183-0.209-1.667-0.344c-0.483-0.137-0.899-0.281-1.246-0.434
		c-0.348-0.152-0.64-0.297-0.877-0.432l1.119-3.154c0.526,0.289,1.174,0.547,1.946,0.775
		C213.453,98.726,214.399,98.839,215.519,98.839z"/>
	<path fill="#FFFFFF" d="M228.499,84.69c0,0.696-0.225,1.242-0.674,1.641c-0.45,0.399-0.979,0.598-1.59,0.598
		s-1.141-0.199-1.59-0.598c-0.45-0.398-0.674-0.945-0.674-1.641c0-0.695,0.224-1.243,0.674-1.641
		c0.449-0.398,0.979-0.598,1.59-0.598s1.14,0.2,1.59,0.598C228.273,83.447,228.499,83.994,228.499,84.69z M228.142,101.938h-3.79
		V88.557h3.79V101.938z"/>
	<path fill="#FFFFFF" d="M237.42,94.84c0-1.223-0.157-2.086-0.471-2.595c-0.314-0.51-0.852-0.764-1.615-0.764
		c-0.238,0-0.484,0.014-0.738,0.039c-0.255,0.025-0.5,0.055-0.738,0.088v10.33h-3.791V89.015c0.322-0.086,0.699-0.174,1.133-0.268
		c0.432-0.093,0.89-0.178,1.373-0.254c0.484-0.077,0.979-0.136,1.488-0.178c0.509-0.042,1.009-0.064,1.501-0.064
		c0.966,0,1.751,0.123,2.353,0.369c0.602,0.246,1.098,0.539,1.488,0.876c0.543-0.388,1.166-0.693,1.87-0.916
		c0.704-0.22,1.352-0.33,1.946-0.33c1.068,0,1.946,0.148,2.633,0.444c0.687,0.298,1.234,0.717,1.641,1.26
		c0.407,0.543,0.687,1.188,0.84,1.934c0.152,0.747,0.229,1.576,0.229,2.492v7.557h-3.791V94.84c0-1.223-0.157-2.086-0.47-2.595
		c-0.314-0.51-0.853-0.764-1.616-0.764c-0.204,0-0.488,0.051-0.853,0.152c-0.365,0.104-0.666,0.23-0.902,0.383
		c0.119,0.39,0.195,0.8,0.229,1.233c0.034,0.432,0.051,0.896,0.051,1.388v7.301h-3.791L237.42,94.84L237.42,94.84z"/>
	<path fill="#FFFFFF" d="M262.949,95.177c0,1.035-0.128,1.977-0.382,2.822c-0.254,0.85-0.627,1.578-1.119,2.189
		c-0.491,0.609-1.102,1.084-1.831,1.424c-0.729,0.338-1.569,0.51-2.519,0.51c-0.525,0-1.018-0.051-1.475-0.152
		c-0.458-0.104-0.898-0.248-1.323-0.434v5.037h-3.79V88.944c0.34-0.102,0.729-0.2,1.169-0.294c0.443-0.093,0.904-0.173,1.388-0.241
		c0.483-0.067,0.976-0.123,1.475-0.165c0.501-0.042,0.98-0.063,1.438-0.063c1.103,0,2.086,0.165,2.951,0.495
		c0.865,0.331,1.594,0.797,2.188,1.398c0.595,0.604,1.049,1.336,1.361,2.202C262.792,93.141,262.949,94.108,262.949,95.177z
		 M259.082,95.278c0-1.169-0.263-2.108-0.788-2.81c-0.525-0.706-1.306-1.057-2.341-1.057c-0.34,0-0.653,0.014-0.94,0.04
		c-0.288,0.025-0.526,0.055-0.713,0.088v6.844c0.238,0.152,0.547,0.279,0.93,0.381c0.38,0.102,0.766,0.152,1.156,0.152
		C258.184,98.915,259.082,97.704,259.082,95.278z"/>
	<path fill="#FFFFFF" d="M270.233,102.122c-1.102-0.018-1.996-0.137-2.683-0.357s-1.229-0.529-1.626-0.928
		c-0.4-0.398-0.672-0.883-0.816-1.449c-0.144-0.57-0.215-1.209-0.215-1.922V82.736l3.79-0.61v14.576c0,0.34,0.025,0.646,0.076,0.916
		c0.052,0.271,0.148,0.5,0.294,0.688c0.144,0.188,0.351,0.34,0.622,0.457c0.272,0.119,0.636,0.195,1.094,0.23L270.233,102.122z"/>
	<path fill="#FFFFFF" d="M276.971,84.69c0,0.696-0.225,1.242-0.674,1.641c-0.45,0.399-0.979,0.598-1.591,0.598
		c-0.609,0-1.14-0.199-1.59-0.598c-0.449-0.398-0.674-0.945-0.674-1.641c0-0.695,0.226-1.243,0.674-1.641
		c0.45-0.398,0.98-0.598,1.59-0.598c0.611,0,1.141,0.2,1.591,0.598C276.746,83.447,276.971,83.994,276.971,84.69z M276.615,101.938
		h-3.791V88.557h3.791V101.938z"/>
	<path fill="#FFFFFF" d="M290.465,89.6c0,1.323-0.349,2.366-1.044,3.13c-0.695,0.761-1.61,1.314-2.746,1.652
		c0.271,0.34,0.622,0.797,1.056,1.374c0.433,0.578,0.877,1.209,1.335,1.895c0.458,0.688,0.906,1.406,1.348,2.15
		c0.441,0.748,0.815,1.459,1.12,2.139h-1.857c-0.356-0.68-0.742-1.357-1.157-2.035c-0.416-0.68-0.84-1.336-1.271-1.973
		c-0.433-0.637-0.854-1.225-1.26-1.768s-0.763-1.018-1.067-1.424c-0.543,0.05-1.085,0.076-1.628,0.076h-2.85v7.124h-1.729v-17.3
		c0.61-0.169,1.326-0.292,2.149-0.368c0.822-0.076,1.582-0.115,2.277-0.115c2.425,0,4.252,0.458,5.48,1.374
		C289.85,86.445,290.465,87.802,290.465,89.6z M283.343,85.656c-0.646,0-1.209,0.022-1.691,0.064
		c-0.484,0.042-0.887,0.081-1.21,0.114v7.504h2.393c0.797,0,1.552-0.037,2.263-0.113c0.713-0.076,1.332-0.246,1.856-0.509
		c0.526-0.264,0.941-0.641,1.248-1.133c0.306-0.49,0.457-1.161,0.457-2.01c0-0.779-0.151-1.424-0.457-1.933
		c-0.307-0.508-0.704-0.911-1.196-1.208c-0.491-0.297-1.056-0.5-1.691-0.611C284.678,85.711,284.02,85.656,283.343,85.656z"/>
	<path fill="#FFFFFF" d="M305.384,95.303c0,1.034-0.147,1.975-0.445,2.823c-0.297,0.85-0.712,1.57-1.246,2.164
		s-1.167,1.055-1.896,1.385c-0.728,0.332-1.535,0.498-2.416,0.498c-0.882,0-1.688-0.166-2.417-0.498
		c-0.729-0.33-1.36-0.791-1.895-1.385c-0.535-0.594-0.95-1.314-1.246-2.164c-0.298-0.848-0.446-1.789-0.446-2.823
		c0-1.035,0.148-1.977,0.446-2.824c0.296-0.848,0.711-1.573,1.246-2.174c0.534-0.602,1.165-1.07,1.895-1.4
		c0.729-0.33,1.535-0.496,2.417-0.496c0.881,0,1.688,0.166,2.416,0.496c0.729,0.331,1.361,0.798,1.896,1.4
		c0.534,0.602,0.949,1.327,1.246,2.174C305.236,93.326,305.384,94.268,305.384,95.303z M303.629,95.303
		c0-1.645-0.382-2.955-1.145-3.93c-0.764-0.977-1.798-1.463-3.104-1.463c-1.307,0-2.341,0.487-3.104,1.463
		c-0.763,0.975-1.145,2.285-1.145,3.93s0.382,2.952,1.145,3.917c0.764,0.969,1.798,1.451,3.104,1.451
		c1.306,0,2.34-0.482,3.104-1.451C303.247,98.255,303.629,96.948,303.629,95.303z"/>
	<path fill="#FFFFFF" d="M317.729,101.407c-0.492,0.137-1.153,0.289-1.984,0.459s-1.848,0.256-3.053,0.256
		c-0.983,0-1.807-0.145-2.468-0.434c-0.66-0.289-1.195-0.695-1.602-1.221c-0.408-0.525-0.7-1.162-0.878-1.908
		c-0.179-0.746-0.267-1.568-0.267-2.467v-7.379h1.653v6.844c0,0.934,0.066,1.721,0.203,2.365c0.136,0.645,0.355,1.166,0.661,1.564
		s0.7,0.688,1.184,0.865c0.483,0.18,1.072,0.268,1.769,0.268c0.778,0,1.458-0.043,2.035-0.127c0.575-0.086,0.941-0.162,1.094-0.23
		V88.714h1.652V101.407L317.729,101.407z"/>
	<path fill="#FFFFFF" d="M321.26,88.714h5.239v1.399h-5.239v6.997c0,0.746,0.062,1.352,0.191,1.818
		c0.126,0.467,0.309,0.826,0.545,1.08c0.238,0.256,0.526,0.426,0.866,0.51s0.712,0.127,1.119,0.127c0.694,0,1.255-0.08,1.678-0.242
		c0.424-0.16,0.757-0.309,0.992-0.445l0.408,1.375c-0.238,0.152-0.653,0.326-1.246,0.52c-0.595,0.195-1.24,0.293-1.934,0.293
		c-0.814,0-1.498-0.105-2.049-0.316s-0.992-0.535-1.322-0.967c-0.331-0.434-0.564-0.971-0.699-1.615
		c-0.136-0.645-0.205-1.408-0.205-2.289v-12.11l1.655-0.305V88.714z"/>
	<path fill="#FFFFFF" d="M328.912,95.278c0-1.152,0.165-2.159,0.496-3.014c0.33-0.857,0.763-1.574,1.297-2.151
		c0.535-0.576,1.146-1.005,1.832-1.285c0.687-0.279,1.395-0.419,2.125-0.419c1.609,0,2.896,0.525,3.853,1.577
		c0.958,1.052,1.438,2.671,1.438,4.858c0,0.137-0.005,0.272-0.014,0.409c-0.008,0.136-0.021,0.262-0.037,0.381h-9.234
		c0.051,1.611,0.449,2.85,1.195,3.715s1.934,1.297,3.562,1.297c0.898,0,1.609-0.084,2.137-0.254c0.525-0.17,0.906-0.312,1.145-0.434
		l0.305,1.426c-0.237,0.137-0.682,0.297-1.335,0.482s-1.421,0.279-2.303,0.279c-1.152,0-2.136-0.168-2.951-0.508
		c-0.813-0.338-1.483-0.812-2.009-1.424c-0.526-0.611-0.908-1.338-1.146-2.176C329.03,97.198,328.912,96.28,328.912,95.278z
		 M338.248,94.235c-0.034-1.374-0.356-2.442-0.967-3.205c-0.61-0.764-1.476-1.146-2.595-1.146c-0.594,0-1.123,0.119-1.59,0.355
		c-0.467,0.239-0.874,0.557-1.222,0.956c-0.347,0.398-0.618,0.859-0.813,1.385c-0.195,0.526-0.309,1.077-0.344,1.654H338.248z"/>
</g>
<g>
	<g>
		<g>
			<path fill="#FFFFFF" d="M185.15,76.158c0,1.644-1.077,3.048-2.598,3.615v11.206c0.574,0.184,1.105,0.459,1.578,0.812l7.372-6.388
				c-0.101-0.373-0.156-0.766-0.156-1.173c0-1.938,1.225-3.574,2.907-4.108c-2.563-2.276-5.709-3.908-9.188-4.646
				c0.048,0.164,0.077,0.353,0.083,0.574L185.15,76.158z"/>
		</g>
	</g>
	<g>
		<g>
			<path fill="#FFFFFF" d="M195.443,88.523c-0.812,0-1.567-0.249-2.205-0.675l-7.296,6.324c0.219,0.566,0.347,1.177,0.365,1.816
				l0.002,0.152c0,0.869-0.205,1.689-0.567,2.418l5.522,6.828c0.404-0.129,0.833-0.199,1.277-0.199c1.794,0,3.336,1.129,3.978,2.734
				c2.818-3.479,4.512-7.914,4.522-12.746c-0.006-3.162-0.74-6.152-2.042-8.815C198.293,87.653,196.966,88.523,195.443,88.523z"/>
		</g>
	</g>
	<g>
		<g>
			<path fill="#FFFFFF" d="M188.244,109.585c0-0.979,0.313-1.881,0.842-2.611l-5.137-6.354c-0.865,0.592-1.91,0.939-3.035,0.939
				c-0.82,0-1.599-0.186-2.295-0.516l-5.86,5.912c0.192,0.461,0.305,0.963,0.32,1.49l0.001,0.117c0,1.781-1.114,3.303-2.685,3.91
				c0.029,0.018,0.059,0.035,0.088,0.053c0.105,0.062,0.211,0.127,0.317,0.188c0.01,0.006,0.021,0.012,0.03,0.018
				c2.956,1.695,6.38,2.666,10.031,2.666c3.317,0,6.446-0.801,9.207-2.219C188.965,112.384,188.244,111.071,188.244,109.585z"/>
		</g>
	</g>
	<g>
		<g>
			<path fill="#FFFFFF" d="M168.882,104.372c0.558,0,1.09,0.109,1.578,0.307l5.78-5.83c-0.459-0.797-0.723-1.721-0.723-2.707
				c0-2.522,1.715-4.639,4.037-5.245V79.773c-1.521-0.567-2.598-1.972-2.598-3.616c0-0.307,0.034-0.557,0.099-0.761
				c-9.313,1.778-16.354,9.954-16.373,19.78c0.01,4.617,1.557,8.871,4.153,12.277C165.323,105.677,166.95,104.372,168.882,104.372z
				 M169.161,88.729c1.406-0.001,2.559,1.143,2.598,2.583l0,0.074c0,1.467-1.162,2.659-2.597,2.659c-1.435,0-2.599-1.19-2.599-2.657
				C166.564,89.918,167.726,88.729,169.161,88.729z"/>
		</g>
	</g>
</g>
</svg>
