<?xml version="1.0" encoding="utf-8"?>
<!-- Generator: Adobe Illustrator 16.0.0, SVG Export Plug-In . SVG Version: 6.00 Build 0)  -->
<!DOCTYPE svg PUBLIC "-//W3C//DTD SVG 1.1//EN" "http://www.w3.org/Graphics/SVG/1.1/DTD/svg11.dtd">
<svg version="1.1" id="Layer_1" xmlns="http://www.w3.org/2000/svg" xmlns:xlink="http://www.w3.org/1999/xlink" x="0px" y="0px"
	 width="210px" height="187.96px" viewBox="0 0 210 187.96" enable-background="new 0 0 210 187.96" xml:space="preserve">
<g>
	<g>
		<path fill="#E6E6E6" d="M43.345,119.646c0,3.585,2.821,6.491,6.301,6.491h10.629l7.319-2.447l7.048,2.447h62.905
			c3.479,0,6.301-2.906,6.301-6.491V47.588c0-3.585-2.821-6.492-6.301-6.492H49.646c-3.48,0-6.301,2.907-6.301,6.492V119.646z"/>
		<g>
			<g>
				<path fill="#808080" d="M200.262,103.911c-0.005,0-0.01,0-0.016,0h-43.938c-0.606,0-1.098-0.489-1.098-1.096V76.787
					c0-0.604,0.491-1.094,1.098-1.094h29.636c0.399,0,0.767,0.216,0.961,0.566l14.222,25.883c0.145,0.187,0.23,0.419,0.23,0.673
					C201.357,103.422,200.867,103.911,200.262,103.911z M157.403,101.72h40.99l-13.098-23.836h-27.893V101.72z"/>
			</g>
			<g>
				<path fill="#666666" d="M167.905,147.96c-6.998,0-12.694-5.692-12.694-12.691c0-6.998,5.696-12.692,12.694-12.692
					c6.997,0,12.691,5.694,12.691,12.692C180.597,142.268,174.902,147.96,167.905,147.96z M167.905,124.769
					c-5.792,0-10.502,4.71-10.502,10.5c0,5.789,4.71,10.501,10.502,10.501c5.789,0,10.499-4.712,10.499-10.501
					C178.404,129.479,173.694,124.769,167.905,124.769z"/>
			</g>
			<g>
				<path fill="#666666" d="M49.646,125.041c-2.871,0-5.205-2.421-5.205-5.396V47.588c0-2.976,2.334-5.396,5.205-5.396h87.901
					c2.869,0,5.205,2.42,5.205,5.396v72.058c0,2.975-2.336,5.396-5.205,5.396h-58.99c0.628,0.675,1.186,1.412,1.683,2.192h57.308
					c4.078,0,7.396-3.404,7.396-7.588V47.588c0-4.184-3.318-7.588-7.396-7.588H49.646c-4.079,0-7.396,3.404-7.396,7.588v72.058
					c0,4.184,3.318,7.588,7.396,7.588h5.303c0.496-0.78,1.054-1.518,1.682-2.192H49.646z"/>
				<path fill="#666666" d="M43.345,131.355c-0.605,0-1.095,0.491-1.095,1.096s0.49,1.095,1.095,1.095h9.344
					c0.087-0.749,0.237-1.479,0.429-2.19H43.345z"/>
				<path fill="#666666" d="M82.071,131.355c0.192,0.712,0.343,1.441,0.429,2.19h70.499c0.087-0.749,0.235-1.479,0.43-2.19H82.071z"
					/>
				<path fill="#666666" d="M196.247,77.902c-0.368-0.858-3.726-8.395-8.395-8.395h-29.544c-4.677,0-8.482,3.959-8.482,8.826v46.387
					c0,0.604,0.491,1.096,1.096,1.096s1.096-0.491,1.096-1.096V78.333c0-3.658,2.823-6.635,6.291-6.635h29.544
					c2.733,0,5.594,5.233,6.412,7.135c5.237,10.214,13.543,27.507,13.543,30.425v15.462c0,3.659-2.82,6.636-6.289,6.636h-19.138
					c0.192,0.712,0.342,1.441,0.429,2.19h18.709c4.677,0,8.481-3.959,8.481-8.826v-15.462
					C210,104.852,197.625,80.585,196.247,77.902z"/>
			</g>
		</g>
		<g>
			<path fill="#666666" d="M67.595,147.96c-6.999,0-12.692-5.692-12.692-12.691c0-6.998,5.694-12.692,12.692-12.692
				c6.999,0,12.692,5.694,12.692,12.692C80.287,142.268,74.594,147.96,67.595,147.96z M67.595,124.769c-5.791,0-10.5,4.71-10.5,10.5
				c0,5.789,4.71,10.501,10.5,10.501c5.791,0,10.501-4.712,10.501-10.501C78.096,129.479,73.386,124.769,67.595,124.769z"/>
		</g>
	</g>
	<g>
		<path fill="#666666" d="M1.125,133.576H35.57c0.622,0,1.125-0.505,1.125-1.125c0-0.622-0.503-1.126-1.125-1.126H1.125
			c-0.622,0-1.125,0.504-1.125,1.126C0,133.071,0.503,133.576,1.125,133.576z"/>
	</g>
	<g>
		<path fill="#666666" d="M21.259,127.262h17.223c0.62,0,1.125-0.503,1.125-1.125c0-0.621-0.505-1.124-1.125-1.124H21.259
			c-0.622,0-1.126,0.503-1.126,1.124C20.133,126.759,20.638,127.262,21.259,127.262z"/>
	</g>
	<g>
		<g>
			<g>
				<path fill="#B2B2B2" d="M60.19,47.617c0,1.045,0.685,1.939,1.653,2.301v7.126c-0.364,0.118-0.703,0.294-1.003,0.518
					l-4.689-4.064c0.064-0.237,0.099-0.487,0.099-0.747c0-1.232-0.779-2.273-1.849-2.614c1.63-1.447,3.632-2.485,5.844-2.954
					c-0.03,0.104-0.048,0.225-0.053,0.365L60.19,47.617z"/>
			</g>
		</g>
		<g>
			<g>
				<path fill="#B2B2B2" d="M53.644,55.483c0.516,0,0.997-0.159,1.403-0.431l4.641,4.023c-0.139,0.36-0.221,0.75-0.232,1.156
					l-0.002,0.097c0,0.551,0.132,1.074,0.361,1.537l-3.512,4.344c-0.257-0.082-0.529-0.126-0.812-0.126
					c-1.142,0-2.123,0.717-2.531,1.74c-1.792-2.213-2.871-5.035-2.876-8.109c0.004-2.011,0.471-3.914,1.3-5.607
					C51.831,54.929,52.676,55.483,53.644,55.483z"/>
			</g>
		</g>
		<g>
			<g>
				<path fill="#B2B2B2" d="M58.224,68.88c0-0.622-0.2-1.197-0.536-1.662l3.268-4.041c0.55,0.376,1.214,0.596,1.93,0.596
					c0.523,0,1.018-0.118,1.461-0.326l3.726,3.759c-0.121,0.294-0.193,0.613-0.202,0.948L67.87,68.23
					c0,1.134,0.708,2.102,1.707,2.487c-0.019,0.009-0.037,0.022-0.057,0.034c-0.066,0.039-0.134,0.08-0.2,0.118
					c-0.008,0.004-0.014,0.007-0.02,0.012c-1.88,1.078-4.059,1.696-6.381,1.696c-2.111,0-4.1-0.51-5.857-1.411
					C57.764,70.66,58.224,69.825,58.224,68.88z"/>
			</g>
		</g>
		<g>
			<g>
				<path fill="#B2B2B2" d="M73.113,67.523c1.651-2.166,2.636-4.871,2.642-7.809c-0.013-6.249-4.49-11.452-10.415-12.582
					c0.041,0.13,0.063,0.288,0.063,0.484c0,1.045-0.685,1.939-1.653,2.301v7.075c1.478,0.385,2.568,1.732,2.568,3.336
					c0,0.626-0.168,1.214-0.459,1.723l3.676,3.708c0.311-0.126,0.649-0.195,1.004-0.195C71.768,65.564,72.804,66.394,73.113,67.523z
					 M72.014,57.305c0,0.933-0.74,1.689-1.652,1.688c-0.913,0-1.653-0.757-1.652-1.691v-0.045c0.025-0.915,0.759-1.644,1.654-1.644
					C71.274,55.613,72.014,56.371,72.014,57.305z"/>
			</g>
		</g>
	</g>
</g>
</svg>
