<?xml version="1.0" encoding="utf-8"?>
<!-- Generator: Adobe Illustrator 16.0.0, SVG Export Plug-In . SVG Version: 6.00 Build 0)  -->
<!DOCTYPE svg PUBLIC "-//W3C//DTD SVG 1.1//EN" "http://www.w3.org/Graphics/SVG/1.1/DTD/svg11.dtd">
<svg version="1.1" id="Layer_1" xmlns="http://www.w3.org/2000/svg" xmlns:xlink="http://www.w3.org/1999/xlink" x="0px" y="0px"
	 width="210px" height="167.52px" viewBox="0 0 210 167.52" enable-background="new 0 0 210 167.52" xml:space="preserve">
<path fill="#666666" d="M176.041,42.304c-4.098-1.511-8.474-2.306-12.971-2.306c-9.993,0-19.391,3.892-26.457,10.958
	c-0.524,0.525-0.524,1.377,0,1.902c0.526,0.525,1.379,0.525,1.902,0c6.559-6.558,15.278-10.169,24.555-10.169
	c0.615,0,1.234,0.019,1.845,0.05c-8.114,1.526-15.321,5.646-20.728,11.468c-2.197,0.824-4.333,1.743-6.354,2.751
	c-14.673,7.325-23.179,18.194-22.755,29.077c0.027,0.742,0.635,1.313,1.396,1.293c0.742-0.027,1.32-0.657,1.292-1.396
	c-0.382-9.794,7.567-19.727,21.267-26.564c0.535-0.265,1.09-0.513,1.64-0.768c-4.168,6.083-6.611,13.433-6.611,21.346
	c0,20.877,16.985,37.865,37.865,37.865s37.865-16.987,37.865-37.865C209.794,60.454,194.994,44.361,176.041,42.304z M202.453,64.375
	c4.067,13.211-1.096,25.76-7.985,34.034c-5.624,6.75-13.613,10.628-22.498,10.939c-7.216,0.248-14.128-2.345-19.418-7.28
	c-5.294-4.935-8.348-11.675-8.598-18.906c-0.238-6.787,2.492-13.999,7.123-18.797c2.521-2.613,6.765-5.823,12.663-5.823
	c0.01,0,0.016,0,0.023,0c11.265,0,19.063,6.77,19.41,16.72c0.136,3.916-1.167,7.665-3.672,10.341
	c-2.513,2.688-6.046,4.163-10.212,4.295c-5.495,0.148-11.063-5.511-11.27-11.47c-0.086-2.551,1.469-5.846,3.789-8.011
	c1.628-1.516,3.38-2.268,4.933-2.107c2.896,0.301,4.774,1.174,5.59,2.593c-2.851-2.312-7.038-2.032-9.834,0.764
	c-3.473,3.474-3.473,9.126,0,12.599c4.213,4.208,11.065,4.21,15.273,0c2.488-2.488,3.859-5.791,3.859-9.309
	c0-3.515-1.371-6.823-3.859-9.307c-3.042-3.044-7.092-4.721-11.398-4.721c-4.302,0-8.353,1.677-11.396,4.721
	c-3.743,3.743-5.805,8.717-5.805,14.009c0,5.293,2.062,10.267,5.805,14.009c9.523,9.525,25.024,9.522,34.549,0
	c11.776-11.775,11.776-30.935,0-42.71c-0.359-0.36-0.731-0.707-1.105-1.052C194.421,53.213,200.433,57.816,202.453,64.375z
	 M171.93,114.222c-18.902,0-34.278-15.378-34.278-34.279c0-9.391,3.798-17.907,9.935-24.105c12.778-4.271,27.271-4.916,35.448,1.748
	c5.922,4.823,7.472,12.725,4.613,23.494c-0.027,0.116-3.152,11.563-15.858,12.924c-0.738,0.08-1.275,0.741-1.193,1.48
	c0.074,0.689,0.658,1.204,1.338,1.204c0.047,0,0.096-0.004,0.143-0.011c14.538-1.555,18.145-14.787,18.177-14.913
	c3.929-14.794-0.831-22.449-5.513-26.266c-7.653-6.237-20.153-6.696-32.107-3.867c5.501-3.764,12.148-5.968,19.302-5.968
	c2.255,0,4.461,0.226,6.596,0.644c3.323,1.655,6.396,3.848,9.098,6.549c10.729,10.726,10.729,28.179,0,38.905
	c-8.474,8.474-22.268,8.474-30.741,0c-3.234-3.233-5.017-7.533-5.017-12.106s1.782-8.874,5.017-12.106
	c2.536-2.538,5.907-3.933,9.496-3.933c3.587,0,6.956,1.398,9.495,3.934c1.979,1.978,3.068,4.608,3.068,7.405
	c0,2.8-1.088,5.429-3.068,7.408c-3.161,3.162-8.308,3.162-11.47,0c-2.426-2.422-2.426-6.369,0-8.793
	c1.918-1.92,4.808-2.036,6.577-0.266c0.876,0.876,0.374,3.932-0.241,5.721c-0.224,0.641,0.069,1.346,0.678,1.646
	c0.606,0.299,1.342,0.099,1.716-0.465c0.156-0.239,3.81-5.873,1.748-10.226c-1.166-2.462-3.812-3.926-7.862-4.346
	c-2.343-0.249-4.844,0.755-7.045,2.811c-2.893,2.701-4.76,6.741-4.643,10.063c0.259,7.449,7.033,14.293,14.044,14.054
	c4.899-0.154,9.079-1.955,12.095-5.176c2.996-3.204,4.559-7.498,4.398-12.134c-0.399-11.507-9.28-19.236-22.098-19.236
	c-0.012,0-0.018,0-0.027,0c-5.415,0-10.464,2.28-14.597,6.567c-5.197,5.384-8.141,13.175-7.876,20.779
	c0.278,7.951,3.634,15.303,9.45,20.728c5.56,5.185,12.726,7.995,20.288,7.995c0.351,0,0.707-0.01,1.061-0.022
	c9.662-0.339,18.352-4.571,24.471-11.919c5.692-6.837,9.175-13.967,9.463-24.452c0.383,2.043,0.21,2.104,0.21,4.257
	C206.207,98.846,190.831,114.222,171.93,114.222z"/>
<g>
	<path fill="#A0A0A0" d="M99.231,85.755c-0.445,0-0.84-0.23-1.068-0.576C91.98,77.314,82.93,72.624,73.929,72.624
		c-3.009,0-6.123,0-9.033,0.908c-0.495,0.152-1.033-0.008-1.359-0.409c-6.931-8.536-17.599-13.631-28.539-13.631
		c-0.699,0-1.266-0.565-1.266-1.266c0-0.699,0.566-1.265,1.266-1.265c11.417,0,22.555,5.188,29.967,13.919
		c3.029-0.787,6.168-0.787,8.964-0.787c9.809,0,19.641,5.089,26.3,13.618c0.297,0.38,0.353,0.899,0.141,1.334
		C100.157,85.479,99.715,85.755,99.231,85.755z"/>
</g>
<g>
	<path fill="#A0A0A0" d="M132.154,116.976c-0.992,0-1.796-0.803-1.796-1.794c0-5.99-4.875-10.863-10.861-10.863
		c-0.633,0-1.276,0.062-1.968,0.189l-1.523,0.277l-0.499-1.465c-2.373-6.973-8.909-11.659-16.264-11.659
		c-0.92,0-1.879,0.088-2.93,0.27l-1.25,0.216l-0.62-1.105c-4.166-7.422-12.027-12.036-20.515-12.036
		c-3.812,0-7.465,0.898-10.858,2.671l-1.506,0.786L60.698,81c-5.357-9.039-15.2-14.651-25.688-14.651
		c-16.457,0-29.848,13.39-29.848,29.848c0,5.982,1.762,11.752,5.095,16.688c0.555,0.821,0.34,1.936-0.481,2.492
		c-0.822,0.555-1.935,0.34-2.491-0.485c-3.736-5.529-5.712-11.995-5.712-18.694c0-18.435,15-33.435,33.436-33.435
		c11.196,0,21.736,5.71,27.896,15.008c3.481-1.562,7.182-2.352,11.022-2.352c9.37,0,18.075,4.872,23.011,12.795
		c0.793-0.092,1.555-0.138,2.303-0.138c8.393,0,15.906,5.045,19.133,12.702c8.477-0.683,15.569,6.064,15.569,14.404
		C133.945,116.173,133.145,116.976,132.154,116.976z"/>
</g>
<g>
	<path fill="#A0A0A0" d="M177.683,127.522h-68.346c-0.698,0-1.266-0.566-1.266-1.266s0.567-1.266,1.266-1.266h68.346
		c0.699,0,1.266,0.566,1.266,1.266S178.382,127.522,177.683,127.522z"/>
</g>
<g>
	<path fill="#A0A0A0" d="M149.839,122.459h-55.69c-0.698,0-1.266-0.566-1.266-1.266s0.568-1.266,1.266-1.266h55.69
		c0.699,0,1.266,0.566,1.266,1.266S150.538,122.459,149.839,122.459z"/>
</g>
</svg>
